<svg width="177" height="175" viewBox="0 0 177 175" fill="none" xmlns="http://www.w3.org/2000/svg">
<path d="M60.2117 9.13041C66.0179 10.0525 71.9505 8.59024 76.6632 5.07548C83.6854 -0.161765 93.3146 -0.161765 100.337 5.07548C105.05 8.59024 110.982 10.0525 116.788 9.13041C125.44 7.75646 133.966 12.2313 137.75 20.1321C140.29 25.4344 144.863 29.4861 150.433 31.368C158.732 34.1721 164.202 42.0967 163.881 50.851C163.666 56.7261 165.832 62.4391 169.889 66.6938C175.935 73.0335 177.096 82.5925 172.743 90.1948C169.822 95.2968 169.085 101.362 170.701 107.015C173.107 115.438 169.693 124.442 162.306 129.15C157.348 132.31 153.877 137.339 152.681 143.095C150.897 151.672 143.69 158.057 134.961 158.793C129.102 159.288 123.692 162.127 119.958 166.668C114.393 173.433 105.043 175.738 96.9719 172.333C91.555 170.048 85.445 170.048 80.0281 172.333C71.9565 175.738 62.6072 173.433 57.0423 166.668C53.3077 162.127 47.8975 159.288 42.0393 158.793C33.3101 158.057 26.1026 151.672 24.3193 143.095C23.1225 137.339 19.6516 132.31 14.6941 129.15C7.30708 124.442 3.89254 115.438 6.29932 107.015C7.91454 101.362 7.17805 95.2968 4.25697 90.1948C-0.0956564 82.5925 1.06501 73.0335 7.11051 66.6938C11.1677 62.4391 13.3344 56.7261 13.1189 50.851C12.7978 42.0967 18.2678 34.1721 26.5671 31.368C32.1367 29.4861 36.7102 25.4344 39.2497 20.1321C43.0337 12.2313 51.5599 7.75646 60.2117 9.13041Z" stroke="black" stroke-width="2"/>
</svg>
