    <svg version="1.1" xmlns="http://www.w3.org/2000/svg" viewBox="0 0 195 176.6" class="homo-sapiens__gradient-form"><linearGradient id="homo1" gradientUnits="userSpaceOnUse" x1="124.4666" y1="11.4233" x2="318.9038" y2="11.4233" gradientTransform="matrix(0.9795 -0.2015 0.2015 0.9795 -119.0842 129.663)"><stop offset="0" style="stop-color: rgb(255, 255, 37);"></stop> <stop offset="0.4655" style="stop-color: rgb(217, 0, 213);"></stop> <stop offset="1" style="stop-color: rgb(24, 211, 255);"></stop></linearGradient> 
        <path fill="url(#homo1)" d="M161.5,166.2c-5.9,2.4-12.6,4.6-20,6.4c-19.2,4.8-37.8,5.3-58.3,1.5c-16.4-3-23.9-13.6-34.3-28.2 c-1.7-2.4-3.5-4.9-5.4-7.5c-4.9-6.7-12.6-13-20-19.1C10.5,108.6-1.7,98.5,0.2,86.9c1.9-11.7,17.5-17.5,32.6-23 C43,60.1,53.6,56.2,59,50.6c4.7-4.9,8.6-10,12.3-14.9c8-10.5,14.9-19.6,26.3-20.6l0,0c7.7-0.6,17.2-3.7,27.2-7 c17.8-5.9,36.2-11.9,47.9-5c15.3,9,13.8,35,12.4,58c-0.4,6-0.7,11.6-0.7,16.6c0,8.8,2.8,18.2,5.5,27.3c3.8,12.6,7.3,24.5,3.4,34.1 C188.9,150.3,178.2,159.4,161.5,166.2z M23,69.1c-10.8,4.4-20.1,9.7-21.4,18c-1.7,10.9,10.2,20.7,22.8,31.2 c7.5,6.2,15.2,12.6,20.2,19.4c1.9,2.6,3.7,5.1,5.4,7.5c10.2,14.4,17.6,24.8,33.4,27.6c20.4,3.7,38.7,3.2,57.8-1.5 c27.9-6.9,45.1-17.9,50.9-32.6c3.7-9.2,0.2-20.9-3.5-33.2c-2.7-9.2-5.6-18.7-5.6-27.7c0-5,0.3-10.7,0.7-16.7 c1.3-22.6,2.8-48.2-11.7-56.8c-11.2-6.6-29.3-0.6-46.7,5.2c-10.1,3.3-19.6,6.5-27.5,7.1l0,0c-10.8,0.9-17.6,9.8-25.3,20 c-3.8,4.9-7.6,10.1-12.4,15c-5.6,5.8-15.9,9.6-26.7,13.6C29.8,66.4,26.3,67.7,23,69.1z"></path>
        
      </svg>